<?xml version="1.0" encoding="utf-8"?>
<!-- Generator: Adobe Illustrator 26.0.3, SVG Export Plug-In . SVG Version: 6.00 Build 0)  -->
<svg version="1.1" xmlns="http://www.w3.org/2000/svg" xmlns:xlink="http://www.w3.org/1999/xlink" x="0px" y="0px"
	 viewBox="0 0 1469.94 283.72" style="enable-background:new 0 0 1469.94 283.72;" xml:space="preserve">
<style type="text/css">
	.st0{display:none;}
	.st1{display:inline;}
	.st2{fill:url(#SVGID_1_);}
	.st3{fill:url(#SVGID_00000140736690844117571980000000556262736214797186_);}
	.st4{fill:url(#SVGID_00000108292684446621833460000016446997938189622972_);}
	.st5{fill:url(#SVGID_00000094584597576823328810000004733835634490279855_);}
	.st6{fill:#2C7BD7;}
	.st7{fill:#2773BF;}
	.st8{fill:#297DC6;}
	.st9{fill:#297AD3;}
	.st10{fill:url(#SVGID_00000175313615166717735780000016066730522170214789_);}
	.st11{fill:#2B2B35;}
	.st12{fill:url(#SVGID_00000025400543600090603940000004738625772899482282_);}
	.st13{fill:url(#SVGID_00000054955800449228535530000016889246554596509316_);}
	.st14{fill:url(#SVGID_00000160899395296664855050000017436746918168485547_);}
	.st15{fill:url(#SVGID_00000063635255633752437330000000387519220773431992_);}
	.st16{fill:url(#SVGID_00000163045700419705578120000000821822936992290236_);}
	.st17{fill:#FFFFFA;}
	.st18{opacity:0.1;}
</style>
<g id="레이어_1" class="st0">
	<g class="st1">
		<g>
			<g>
				<linearGradient id="SVGID_1_" gradientUnits="userSpaceOnUse" x1="61.6503" y1="245.2182" x2="187.7012" y2="215.4243">
					<stop  offset="0" style="stop-color:#2C88D6"/>
					<stop  offset="0.1446" style="stop-color:#2F89DC"/>
					<stop  offset="0.3425" style="stop-color:#378DEE"/>
					<stop  offset="0.4788" style="stop-color:#3E90FE"/>
					<stop  offset="0.6362" style="stop-color:#3B8FF8"/>
					<stop  offset="0.8516" style="stop-color:#338BE6"/>
					<stop  offset="1" style="stop-color:#2C88D6"/>
				</linearGradient>
				<path class="st2" d="M182.05,182.49c-17.77,12.86-34.27,22.78-47.61,30.02c0.01,0.01,0.02,0.01,0.03,0.02
					c-5.63,4.21-29.56,14.35-29.56,14.35s0,0,0,0c-0.01,0-0.02-0.01-0.02-0.01c-1.67,0.69-2.64,1.07-2.77,1.11
					c-14.94,5.16-21.8,1.67-23.72-6.35c-11.12-2.91-24.19-8.44-33.43-12.69c-0.3,3.14-0.63,6.97-1.05,11.9
					c-4.67,55.07,34.54,67.07,69.59,50.7c11.24-4.82,22.62-10.77,33.57-17.14c-0.06-0.04-0.16-0.09-0.21-0.12
					c-0.53,0.3-0.72,0.44-0.27,0.17c-0.09,0.05,0.36-0.22,0.27-0.17c0.61-0.36,0.92-0.54,1.88-1.12c2.08-1.25,5.72-3.46,11.67-7.12
					c0.16-0.1,0.32-0.19,0.47-0.29c0.17-0.1,0.34-0.21,0.51-0.31c2.14-1.32,4.25-2.62,6.17-3.8c0.25-0.16,0.49-0.31,0.75-0.47
					c0.01,0,0.01-0.01,0.02-0.01c0.86-0.53,1.76-1.09,2.69-1.66c6.02-3.97,11.71-7.89,16.97-11.61c-1.03-10.97-3.77-30.58-5.92-45.3
					C182.07,182.55,182.06,182.53,182.05,182.49z"/>
				
					<linearGradient id="SVGID_00000091012904379547440850000016842566875426577566_" gradientUnits="userSpaceOnUse" x1="140.4272" y1="71.1272" x2="274.8814" y2="144.466">
					<stop  offset="0" style="stop-color:#2C88D6"/>
					<stop  offset="0.1446" style="stop-color:#2F89DC"/>
					<stop  offset="0.3425" style="stop-color:#378DEE"/>
					<stop  offset="0.4788" style="stop-color:#3E90FE"/>
					<stop  offset="0.6362" style="stop-color:#3B8FF8"/>
					<stop  offset="0.8516" style="stop-color:#338BE6"/>
					<stop  offset="1" style="stop-color:#2C88D6"/>
				</linearGradient>
				<path style="fill:url(#SVGID_00000091012904379547440850000016842566875426577566_);" d="M244.03,75.42
					c-4.61-1.23-9.29-2.14-14-2.88c0,0,0,0,0,0c-7.39-1.43-15.24-2.54-23.27-3.41c0,0,0,0,0,0c-3.95-0.43-7.94-0.79-11.94-1.1
					c-0.02,0-0.03,0-0.05,0c-4-0.31-8-0.56-11.99-0.77c-0.01,0-0.03,0-0.04,0c-8.01-0.41-15.94-0.63-23.53-0.71c0,0,0,0,0,0
					c-8.35-0.09-16.3-0.01-23.5,0.17c0,0,0,0,0,0c0.02,0,0.03,0,0.05,0c-1.87,4.97-4.19,13.09-6.19,25.93
					c3.86,0.06,7.77,0.18,11.69,0.43c11.49,0.72,21.48,1.55,30.17,2.44c0,0,0,0,0,0c0.03,0,0.05,0.01,0.08,0.01
					c0.54,0.06,1.07,0.11,1.61,0.17c0.32,0.03,0.64,0.07,0.96,0.1c0.48,0.05,0.96,0.1,1.43,0.16c0.35,0.04,0.71,0.08,1.05,0.12
					c0.44,0.05,0.87,0.1,1.3,0.15c0.38,0.04,0.76,0.09,1.13,0.13c0.4,0.05,0.78,0.09,1.17,0.14c0.39,0.05,0.79,0.09,1.17,0.14
					c0.36,0.04,0.72,0.09,1.08,0.13c0.4,0.05,0.8,0.1,1.2,0.15c0.34,0.04,0.68,0.09,1.01,0.13c0.4,0.05,0.79,0.1,1.18,0.15
					c0.33,0.04,0.65,0.09,0.98,0.13c0.39,0.05,0.77,0.11,1.15,0.16c0.31,0.04,0.61,0.09,0.92,0.13c0.39,0.05,0.77,0.11,1.15,0.16
					c0.29,0.04,0.58,0.08,0.86,0.13c0.38,0.06,0.76,0.11,1.14,0.17c0.28,0.04,0.55,0.08,0.82,0.12c0.37,0.06,0.74,0.11,1.1,0.17
					c0.27,0.04,0.55,0.09,0.81,0.13c0.35,0.06,0.7,0.11,1.04,0.17c0.26,0.04,0.52,0.09,0.78,0.13c0.34,0.06,0.68,0.11,1.01,0.17
					c0.26,0.04,0.52,0.09,0.77,0.13c0.33,0.06,0.65,0.11,0.97,0.17c0.24,0.04,0.49,0.09,0.73,0.13c0.32,0.06,0.64,0.11,0.95,0.17
					c0.24,0.04,0.47,0.09,0.71,0.13c0.3,0.06,0.61,0.11,0.9,0.17c0.23,0.04,0.46,0.09,0.69,0.13c0.3,0.06,0.59,0.12,0.88,0.17
					c0.22,0.04,0.44,0.09,0.65,0.13c0.29,0.06,0.58,0.12,0.86,0.18c0.21,0.04,0.41,0.08,0.62,0.13c0.28,0.06,0.55,0.12,0.83,0.18
					c0.2,0.04,0.4,0.09,0.6,0.13c0.26,0.06,0.51,0.11,0.77,0.17c0.2,0.05,0.41,0.09,0.61,0.14c0.25,0.06,0.49,0.11,0.74,0.17
					c0.19,0.04,0.38,0.09,0.57,0.13c0.25,0.06,0.49,0.12,0.73,0.18c0.18,0.04,0.36,0.09,0.54,0.13c0.23,0.06,0.45,0.11,0.67,0.17
					c0.18,0.05,0.37,0.09,0.55,0.14c0.21,0.05,0.4,0.1,0.6,0.16c0.19,0.05,0.38,0.1,0.57,0.15c0.21,0.05,0.4,0.11,0.61,0.16
					c0.17,0.05,0.34,0.09,0.51,0.14c0.19,0.05,0.38,0.11,0.56,0.16c0.43,0.12,0.85,0.24,1.25,0.36c0.09,0.03,0.18,0.05,0.27,0.08
					c0.21,0.06,0.41,0.12,0.61,0.18c0.13,0.04,0.26,0.08,0.38,0.12c0.18,0.05,0.35,0.11,0.52,0.16c0.14,0.04,0.29,0.09,0.43,0.13
					c0.17,0.05,0.34,0.11,0.5,0.16c0.13,0.04,0.27,0.09,0.4,0.13c0.17,0.06,0.33,0.11,0.5,0.17c0.13,0.04,0.25,0.08,0.37,0.13
					c0.16,0.05,0.31,0.11,0.47,0.16c0.09,0.03,0.19,0.07,0.29,0.1c0,0,0,0,0,0c6.45,2.28,9.51,4.33,11.97,5.71
					c6.78,4.69,9.76,10.38,9.32,16.1c-0.28,3.59-5.23,9.69-9.17,13.76c4.03,12.71,11.06,42.8,11.06,42.8
					c2.52-2.42,19.36-19.21,25.64-25.67C309.19,117.76,280.73,85.24,244.03,75.42z"/>
				
					<linearGradient id="SVGID_00000079474786786972061740000013683411058099608459_" gradientUnits="userSpaceOnUse" x1="79.4042" y1="169.8467" x2="173.3692" y2="24.6972">
					<stop  offset="0" style="stop-color:#2C88D6"/>
					<stop  offset="0.1446" style="stop-color:#2F89DC"/>
					<stop  offset="0.3425" style="stop-color:#378DEE"/>
					<stop  offset="0.4788" style="stop-color:#3E90FE"/>
					<stop  offset="0.6362" style="stop-color:#3B8FF8"/>
					<stop  offset="0.8516" style="stop-color:#338BE6"/>
					<stop  offset="1" style="stop-color:#2C88D6"/>
				</linearGradient>
				<path style="fill:url(#SVGID_00000079474786786972061740000013683411058099608459_);" d="M75.32,94.66
					C75.32,94.66,75.32,94.66,75.32,94.66c-10.63,26.67-15.82,47.12-17.38,53.19c7.54,7.78,16.2,15.82,24.92,23.47
					c4.35-21.75,12.97-52.63,23.21-78.39c-0.01,0-0.02,0-0.03,0c4.21-10.57,7.65-17.6,9.72-21.64c4.3-8.59,9.75-20.29,22.03-20.97
					c10.17-0.57,14.97,3.15,21.41,16.21c7.6,0.08,15.53,0.3,23.54,0.71c0.01,0,0.03,0,0.04,0c3.99,0.21,8,0.46,11.99,0.77
					c0.02,0,0.03,0,0.05,0c4.01,0.31,8,0.67,11.94,1.1c-4.36-9.62-9.47-19.93-16.71-33c-18.74-33.85-59.81-44.44-86.12-0.01
					c-6.59,11.13-12.34,22.14-17.35,32.69c0,0,0,0,0,0C82.28,77.85,78.55,86.54,75.32,94.66z"/>
				
					<linearGradient id="SVGID_00000155860687810028839660000006405186415942577585_" gradientUnits="userSpaceOnUse" x1="214.8385" y1="121.8101" x2="208.7269" y2="279.1827">
					<stop  offset="0" style="stop-color:#2C88D6"/>
					<stop  offset="0.1446" style="stop-color:#2F89DC"/>
					<stop  offset="0.3425" style="stop-color:#378DEE"/>
					<stop  offset="0.4788" style="stop-color:#3E90FE"/>
					<stop  offset="0.6362" style="stop-color:#3B8FF8"/>
					<stop  offset="0.8516" style="stop-color:#338BE6"/>
					<stop  offset="1" style="stop-color:#2C88D6"/>
				</linearGradient>
				<path style="fill:url(#SVGID_00000155860687810028839660000006405186415942577585_);" d="M225.12,113.87
					c-15.79-2.54-34.76-0.91-46.45,0.6c-0.01-0.03-0.03-0.07-0.04-0.1c12.48,33.31,23.92,67.37,30.69,89.78
					c0.71,2.32,1.37,4.55,1.98,6.64c0,0,0,0-0.01,0c2.02,6.97,3.42,12.35,4.03,15.57c2.97,15.67-5.12,27.34-20.82,21.06
					c-0.19-0.08-0.57-0.27-1.08-0.54c0.02,0.01,0.05,0.03,0.08,0.04c-6.21,6.88-13.54,15.43-19.4,21.55c-1.5-0.73-3-1.47-4.5-2.22
					c3.55,1.77,7.1,3.5,10.68,5.18c35.08,16.41,73.63-3.58,69.76-50.62c-1.04-12.61-2.77-25.18-5.11-37.7c0,0-7.03-30.08-11.06-42.8
					C231.03,130.92,228.06,122.07,225.12,113.87z"/>
				<path class="st6" d="M193.5,246.93c-0.02-0.01-0.05-0.03-0.08-0.04c-0.2-0.11-0.43-0.23-0.67-0.36
					c-0.03-0.02-0.07-0.04-0.1-0.05c-3.76-2.04-11.82-6.73-15.38-8.93c-0.05-0.03-0.09-0.06-0.14-0.09
					c-0.22-0.13-0.41-0.26-0.59-0.37c-0.06-0.04-0.11-0.07-0.16-0.1c-0.16-0.1-0.31-0.2-0.42-0.28c-0.01-0.01-0.35-0.26-0.36-0.27
					c0,0-0.18,0.13-0.18,0.12c-1.58,0.98-2.96,2.04-4.38,2.92c-0.01,0.01-0.02,0.01-0.02,0.02c-0.81,0.5-1.72,1.06-2.67,1.65
					c-0.01,0-0.01,0.01-0.02,0.01c-0.25,0.15-0.5,0.31-0.75,0.47c-2.28,1.41-4.33,2.67-6.17,3.8c-0.17,0.1-0.34,0.21-0.51,0.31
					c-0.16,0.1-0.32,0.19-0.47,0.29c-4.36,2.68-8.71,5.34-11.67,7.12c-1.15,0.69-1.55,0.92-1.88,1.12c0,0,0,0,0.01,0.01
					c0.76,0.43,3.61,1.97,4.21,2.34l0.04,0c2.11,1.16,4.23,2.3,6.36,3.43c1.02,0.54,2.05,1.08,3.07,1.61
					c1.03,0.54,2.06,1.08,3.1,1.61c1.31,0.67,2.63,1.34,3.94,2.01c0.66,0.33,1.33,0.66,1.99,0.99c1.5,0.75,3,1.49,4.5,2.22
					C179.96,262.36,187.28,253.81,193.5,246.93z"/>
				<path class="st7" d="M194.05,173.5c-0.87,0.68-1.74,1.34-2.61,2c-0.51,0.39-1.03,0.79-1.54,1.18c-1.1,0.83-2.18,1.64-3.27,2.45
					c-0.27,0.2-0.53,0.4-0.8,0.59c-1.11,0.82-2.22,1.63-3.32,2.43c-0.15,0.11-0.3,0.22-0.45,0.33c2.15,14.73,4.9,34.4,5.93,45.4
					c3.48-2.46,6.77-4.83,9.84-7.07c0.06-0.05,0.13-0.09,0.19-0.14c2.02-1.47,3.94-2.89,5.74-4.24c0.06-0.04,0.11-0.08,0.17-0.12
					c0.78-0.58,1.54-1.15,2.28-1.7c0.22-0.17,0.44-0.33,0.66-0.49c0.58-0.44,1.15-0.86,1.71-1.28c0.22-0.16,0.44-0.33,0.65-0.49
					c0.71-0.53,1.41-1.06,2.06-1.56c-0.6-2.08-1.27-4.29-1.98-6.64c-1.28-4.22-2.7-8.79-4.23-13.6c-0.83-2.6-1.69-5.27-2.57-7.98
					c-0.67-2.07-1.36-4.16-2.06-6.28c-0.58-1.77-1.18-3.54-1.77-5.33c-0.1-0.29-0.19-0.57-0.29-0.86
					C196.95,171.25,195.49,172.38,194.05,173.5z"/>
				<path class="st8" d="M175.05,104.9c0.01,0.02,0.02,0.04,0.02,0.06c1.19,3.12,2.38,6.26,3.56,9.41c0.01,0.03,0.03,0.07,0.04,0.1
					c11.69-1.51,30.66-3.14,46.45-0.6c-0.01-0.02-0.01-0.03-0.02-0.05c-0.55-1.54-1.11-3.06-1.66-4.56c0-0.01-0.01-0.02-0.01-0.02
					c-0.56-1.52-1.12-3.01-1.67-4.47c-0.09-0.03-0.19-0.07-0.29-0.1c-0.16-0.05-0.31-0.11-0.47-0.16c-0.12-0.04-0.25-0.08-0.37-0.13
					c-0.16-0.06-0.33-0.11-0.5-0.17c-0.13-0.04-0.27-0.09-0.4-0.13c-0.17-0.05-0.33-0.11-0.5-0.16c-0.14-0.04-0.29-0.09-0.43-0.13
					c-0.17-0.05-0.35-0.11-0.52-0.16c-0.12-0.04-0.25-0.08-0.38-0.12c-0.2-0.06-0.4-0.12-0.61-0.18c-0.09-0.03-0.18-0.05-0.27-0.08
					c-0.41-0.12-0.83-0.24-1.25-0.36c-0.19-0.05-0.37-0.11-0.56-0.16c-0.17-0.05-0.34-0.09-0.51-0.14c-0.2-0.05-0.4-0.11-0.61-0.16
					c-0.19-0.05-0.38-0.1-0.57-0.15c-0.2-0.05-0.4-0.1-0.6-0.16c-0.18-0.05-0.36-0.09-0.55-0.14c-0.22-0.06-0.45-0.11-0.67-0.17
					c-0.18-0.04-0.36-0.09-0.54-0.13c-0.24-0.06-0.48-0.12-0.73-0.18c-0.19-0.04-0.38-0.09-0.57-0.13
					c-0.24-0.06-0.49-0.11-0.74-0.17c-0.2-0.05-0.41-0.09-0.61-0.14c-0.25-0.06-0.51-0.11-0.77-0.17c-0.2-0.04-0.4-0.09-0.6-0.13
					c-0.27-0.06-0.55-0.12-0.83-0.18c-0.2-0.04-0.41-0.08-0.62-0.13c-0.29-0.06-0.57-0.12-0.86-0.18c-0.21-0.04-0.43-0.09-0.65-0.13
					c-0.29-0.06-0.58-0.12-0.88-0.17c-0.23-0.04-0.46-0.09-0.69-0.13c-0.3-0.06-0.6-0.11-0.9-0.17c-0.23-0.04-0.47-0.09-0.71-0.13
					c-0.31-0.06-0.63-0.11-0.95-0.17c-0.24-0.04-0.49-0.09-0.73-0.13c-0.32-0.06-0.64-0.11-0.97-0.17
					c-0.25-0.04-0.51-0.09-0.77-0.13c-0.33-0.06-0.67-0.11-1.01-0.17c-0.26-0.04-0.52-0.09-0.78-0.13
					c-0.34-0.06-0.69-0.11-1.04-0.17c-0.27-0.04-0.54-0.09-0.81-0.13c-0.36-0.06-0.73-0.11-1.1-0.17c-0.27-0.04-0.54-0.08-0.82-0.12
					c-0.37-0.06-0.75-0.11-1.14-0.17c-0.29-0.04-0.57-0.08-0.86-0.13c-0.38-0.05-0.76-0.11-1.15-0.16c-0.3-0.04-0.61-0.09-0.92-0.13
					c-0.38-0.05-0.77-0.11-1.15-0.16c-0.32-0.04-0.65-0.09-0.98-0.13c-0.39-0.05-0.78-0.1-1.18-0.15c-0.34-0.04-0.67-0.09-1.01-0.13
					c-0.39-0.05-0.8-0.1-1.2-0.15c-0.36-0.04-0.72-0.09-1.08-0.13c-0.39-0.05-0.78-0.09-1.17-0.14c-0.39-0.05-0.78-0.09-1.17-0.14
					c-0.37-0.04-0.75-0.09-1.13-0.13c-0.43-0.05-0.86-0.1-1.3-0.15c-0.35-0.04-0.7-0.08-1.05-0.12c-0.48-0.05-0.95-0.1-1.43-0.16
					c-0.32-0.03-0.64-0.07-0.96-0.1c-0.53-0.06-1.06-0.11-1.61-0.17c-0.03,0-0.05-0.01-0.08-0.01
					C172.63,98.61,173.84,101.75,175.05,104.9z"/>
				<path class="st9" d="M78.4,221.62c-0.85-3.55-0.73-7.99,0.08-12.96c-9.57-7.71-20.03-16.81-29.36-25.38
					c-0.12,0.61-0.24,1.19-0.36,1.75c-0.04,0.2-0.08,0.39-0.12,0.58c-0.06,0.29-0.12,0.57-0.17,0.84c-1.25,6.06-1.93,9.3-2.53,13.74
					c0,0,0,0,0,0c-0.13,0.94-0.25,1.94-0.37,3.03c0,0.01,0,0.01,0,0.02c-0.12,1.08-0.25,2.26-0.38,3.57c0,0.02,0,0.03,0,0.05
					c-0.07,0.66-0.13,1.34-0.2,2.07C54.21,213.18,67.28,218.71,78.4,221.62z"/>
				
					<linearGradient id="SVGID_00000052799789739864085290000003113694849011133085_" gradientUnits="userSpaceOnUse" x1="36.0318" y1="92.1417" x2="117.7739" y2="183.0511">
					<stop  offset="0" style="stop-color:#2C88D6"/>
					<stop  offset="0.1446" style="stop-color:#2F89DC"/>
					<stop  offset="0.3425" style="stop-color:#378DEE"/>
					<stop  offset="0.4788" style="stop-color:#3E90FE"/>
					<stop  offset="0.6362" style="stop-color:#3B8FF8"/>
					<stop  offset="0.8516" style="stop-color:#338BE6"/>
					<stop  offset="1" style="stop-color:#2C88D6"/>
				</linearGradient>
				<path style="fill:url(#SVGID_00000052799789739864085290000003113694849011133085_);" d="M134.47,212.53
					c-0.01-0.01-0.02-0.01-0.03-0.02c-3.34-2.19-27.71-20.25-51.58-41.19c-8.72-7.65-17.38-15.69-24.92-23.47
					C52.14,141.87,47,136.03,43,130.63c-8.34-11.56-6.06-20.66,2.49-26.87c6.71-4.84,17.22-7.94,29.41-9.06c0,0,0.14-0.01,0.41-0.04
					c0,0,0,0,0,0c3.24-8.12,6.97-16.81,11.26-25.86c0,0,0,0,0,0c-0.15,0.01-0.31,0.02-0.46,0.03c-32.65,1.8-44.76,7.39-48.69,8.86
					C7.16,89.04-9.07,116.35,23.3,157.35c4.19,5.31,14.12,15.21,25.81,25.94c-0.12,0.61-0.24,1.19-0.36,1.75
					c0.12-0.56,0.23-1.14,0.36-1.75c9.34,8.57,19.79,17.66,29.36,25.38c0.04,0.03,0.08,0.07,0.12,0.1
					c10.97,8.84,20.75,15.84,26.29,18.1c0.01,0,0.02,0.01,0.02,0.01c0,0,0,0,0,0S128.83,216.74,134.47,212.53z"/>
				<path class="st8" d="M122.16,67.18c-0.35,0.02-0.69,0.03-1.03,0.05c-0.39,0.02-0.78,0.04-1.16,0.06
					c-0.74,0.04-1.53,0.07-2.24,0.1c-0.22,0.46-0.7,1.37-1.4,2.75c-0.18,0.35-0.35,0.75-0.57,1.16c-0.16,0.33-0.32,0.65-0.48,0.96
					c-2.04,4.03-4.08,8.37-6.04,12.95c-1.08,2.51-2.12,5.1-3.16,7.73c0.93-0.03,1.88-0.06,2.84-0.08c0.85-0.02,1.72-0.05,2.59-0.07
					c0.06,0,0.13,0,0.19,0c5.66-0.15,11.69-0.24,17.86-0.15c2-12.84,4.32-20.95,6.19-25.93c-4.07,0.1-7.91,0.23-11.45,0.38
					c-0.18,0.01-0.37,0.02-0.55,0.02C123.2,67.13,122.68,67.15,122.16,67.18z"/>
			</g>
		</g>
		<g>
			<g>
				<path class="st11" d="M491.62,203.09c0,36.78-26.43,55.17-79.3,55.17c-17.97,0-34.66-2.16-50.09-6.49l6.91-31.46
					c15.24,5.27,29.63,7.9,43.18,7.9c15.05,0,25.87-1.46,32.45-4.37c6.58-2.92,9.88-7.81,9.88-14.67c0-7.15-3.1-13.17-9.31-18.06
					c-5.36-4.33-16.23-9.97-32.59-16.93c-14.86-6.4-25.92-13.36-33.16-20.88c-9.12-9.5-13.69-21.21-13.69-35.13
					c0-16.18,6-28.83,17.99-37.96c11.99-9.12,29.23-13.69,51.71-13.69c18.43,0,33.91,1.55,46.42,4.66l-5.22,31.32
					c-12.7-4.61-26.43-6.91-41.2-6.91c-22.2,0-33.3,5.93-33.3,17.78c0,6.3,2.59,11.43,7.76,15.38c4.51,3.39,14.34,8.14,29.49,14.25
					c16.08,6.49,28.12,13.64,36.12,21.45C486.3,174.87,491.62,187.76,491.62,203.09z"/>
				<path class="st11" d="M645.56,69.47l-0.99,30.34c-18.81-1.41-36.54-2.12-53.19-2.12c-0.19,17.78-0.28,37.58-0.28,59.4
					c0,33.86,0.52,65.89,1.55,96.09h-39.51c1.22-29.91,1.83-61.94,1.83-96.09c0-21.45-0.19-41.25-0.56-59.4
					c-13.26,0-31.46,0.75-54.6,2.26l1.13-30.48H645.56z"/>
				<path class="st11" d="M817.56,253.18h-45.15c0-6.21-4.28-23.8-12.84-52.77h-65.19c-8.84,28.5-13.26,46.09-13.26,52.77h-42.47
					c0-3.67,10.98-33.77,32.95-90.3c21.96-56.53,32.95-87.67,32.95-93.41h53.33c0,5.36,9.95,36.05,29.84,92.07
					C807.61,217.55,817.56,248.1,817.56,253.18z M752.37,173.46c-16.09-48.54-24.13-74.78-24.13-78.73h-2.26
					c0,3.67-8.32,29.91-24.97,78.73H752.37z"/>
				<path class="st11" d="M982.37,253.18H940.6c-10.91-33.3-19.28-53.85-25.12-61.66c-5.83-7.81-15.24-11.71-28.22-11.71
					c-5.46,0-10.68,0.05-15.66,0.14c0,24.18,0.42,48.59,1.27,73.23h-39.22c1.22-28.41,1.83-60.44,1.83-96.09
					c0-34.24-0.61-63.44-1.83-87.62h24.41c2.82,0,8.72-0.14,17.71-0.42c8.98-0.28,17.28-0.42,24.9-0.42
					c43.18,0,64.76,14.77,64.76,44.31c0,23.42-12.32,39.74-36.97,48.96V164c9.5,2.63,17.82,10.04,24.97,22.22
					C960.59,198.41,970.23,220.72,982.37,253.18z M929.46,123.37c0-18.72-12.04-28.08-36.12-28.08c-8.84,0-16.65,0.66-23.42,1.98
					c1.03,14.58,1.55,33.58,1.55,57c5.17,0.19,9.55,0.28,13.12,0.28C914.5,154.55,929.46,144.16,929.46,123.37z"/>
				<path class="st11" d="M1151.41,253.18h-34.85c0-3.86-12.94-24.22-38.8-61.09c-27.09-38.85-42.52-65.42-46.28-79.72h-2.26
					c2.35,20.6,3.53,39.22,3.53,55.87c0,23.24,0.66,51.55,1.98,84.94h-34.71c1.41-29.16,2.12-61.19,2.12-96.09
					c0-34.33-0.71-63.54-2.12-87.62h41.91c0,4.99,11.62,24.88,34.85,59.68c24.74,36.97,38.94,62.04,42.61,75.2h2.12
					c-2.26-20.98-3.39-39.79-3.39-56.44c0-25.49-0.66-51.64-1.98-78.45h35.27c-1.32,23.33-1.98,52.54-1.98,87.62
					C1149.43,192.46,1150.09,224.49,1151.41,253.18z"/>
				<path class="st11" d="M1307.47,222.14l-1.13,31.04h-120.07c1.22-28.41,1.83-60.44,1.83-96.09c0-34.24-0.61-63.44-1.83-87.62
					h114.57l-1.55,30.9c-28.22-1.5-53.81-2.26-76.76-2.26c0.94,13.08,1.41,28.5,1.41,46.28c19.66,0,40.68-0.52,63.07-1.55v29.49
					c-22.01-0.94-43.03-1.41-63.07-1.41c0,19.1,0.37,36.97,1.13,53.62C1250.84,224.53,1278.3,223.73,1307.47,222.14z"/>
				<path class="st11" d="M1461.41,69.47l-0.99,30.34c-18.82-1.41-36.54-2.12-53.19-2.12c-0.19,17.78-0.28,37.58-0.28,59.4
					c0,33.86,0.52,65.89,1.55,96.09h-39.51c1.22-29.91,1.83-61.94,1.83-96.09c0-21.45-0.19-41.25-0.56-59.4
					c-13.26,0-31.47,0.75-54.6,2.26l1.13-30.48H1461.41z"/>
			</g>
		</g>
	</g>
</g>
<g id="레이어_2">
	<g id="레이어_3" class="st0">
		<rect x="-53.46" y="-42.95" class="st1" width="1611.79" height="415.07"/>
	</g>
	<g>
		<g>
			<g>
				
					<linearGradient id="SVGID_00000127728606725707170710000004437729214149144194_" gradientUnits="userSpaceOnUse" x1="61.6503" y1="245.2182" x2="187.7012" y2="215.4243">
					<stop  offset="0" style="stop-color:#2C88D6"/>
					<stop  offset="0.1446" style="stop-color:#2F89DC"/>
					<stop  offset="0.3425" style="stop-color:#378DEE"/>
					<stop  offset="0.4788" style="stop-color:#3E90FE"/>
					<stop  offset="0.6362" style="stop-color:#3B8FF8"/>
					<stop  offset="0.8516" style="stop-color:#338BE6"/>
					<stop  offset="1" style="stop-color:#2C88D6"/>
				</linearGradient>
				<path style="fill:url(#SVGID_00000127728606725707170710000004437729214149144194_);" d="M182.05,182.49
					c-17.77,12.86-34.27,22.78-47.61,30.02c0.01,0.01,0.02,0.01,0.03,0.02c-5.63,4.21-29.56,14.35-29.56,14.35s0,0,0,0
					c-0.01,0-0.02-0.01-0.02-0.01c-1.67,0.69-2.64,1.07-2.77,1.11c-14.94,5.16-21.8,1.67-23.72-6.35
					c-11.12-2.91-24.19-8.44-33.43-12.69c-0.3,3.14-0.63,6.97-1.05,11.9c-4.67,55.07,34.54,67.07,69.59,50.7
					c11.24-4.82,22.62-10.77,33.57-17.14c-0.06-0.04-0.16-0.09-0.21-0.12c-0.53,0.3-0.72,0.44-0.27,0.17
					c-0.09,0.05,0.36-0.22,0.27-0.17c0.61-0.36,0.92-0.54,1.88-1.12c2.08-1.25,5.72-3.46,11.67-7.12c0.16-0.1,0.32-0.19,0.47-0.29
					c0.17-0.1,0.34-0.21,0.51-0.31c2.14-1.32,4.25-2.62,6.17-3.8c0.25-0.16,0.49-0.31,0.75-0.47c0.01,0,0.01-0.01,0.02-0.01
					c0.86-0.53,1.76-1.09,2.69-1.66c6.02-3.97,11.71-7.89,16.97-11.61c-1.03-10.97-3.77-30.58-5.92-45.3
					C182.07,182.55,182.06,182.53,182.05,182.49z"/>
				
					<linearGradient id="SVGID_00000106115442211062211180000008278184313620905887_" gradientUnits="userSpaceOnUse" x1="140.4272" y1="71.1272" x2="274.8814" y2="144.466">
					<stop  offset="0" style="stop-color:#2C88D6"/>
					<stop  offset="0.1446" style="stop-color:#2F89DC"/>
					<stop  offset="0.3425" style="stop-color:#378DEE"/>
					<stop  offset="0.4788" style="stop-color:#3E90FE"/>
					<stop  offset="0.6362" style="stop-color:#3B8FF8"/>
					<stop  offset="0.8516" style="stop-color:#338BE6"/>
					<stop  offset="1" style="stop-color:#2C88D6"/>
				</linearGradient>
				<path style="fill:url(#SVGID_00000106115442211062211180000008278184313620905887_);" d="M244.03,75.42
					c-4.61-1.23-9.29-2.14-14-2.88c0,0,0,0,0,0c-7.39-1.43-15.24-2.54-23.27-3.41c0,0,0,0,0,0c-3.95-0.43-7.94-0.79-11.94-1.1
					c-0.02,0-0.03,0-0.05,0c-4-0.31-8-0.56-11.99-0.77c-0.01,0-0.03,0-0.04,0c-8.01-0.41-15.94-0.63-23.53-0.71c0,0,0,0,0,0
					c-8.35-0.09-16.3-0.01-23.5,0.17c0,0,0,0,0,0c0.02,0,0.03,0,0.05,0c-1.87,4.97-4.19,13.09-6.19,25.93
					c3.86,0.06,7.77,0.18,11.69,0.43c11.49,0.72,21.48,1.55,30.17,2.44c0,0,0,0,0,0c0.03,0,0.05,0.01,0.08,0.01
					c0.54,0.06,1.07,0.11,1.61,0.17c0.32,0.03,0.64,0.07,0.96,0.1c0.48,0.05,0.96,0.1,1.43,0.16c0.35,0.04,0.71,0.08,1.05,0.12
					c0.44,0.05,0.87,0.1,1.3,0.15c0.38,0.04,0.76,0.09,1.13,0.13c0.4,0.05,0.78,0.09,1.17,0.14c0.39,0.05,0.79,0.09,1.17,0.14
					c0.36,0.04,0.72,0.09,1.08,0.13c0.4,0.05,0.8,0.1,1.2,0.15c0.34,0.04,0.68,0.09,1.01,0.13c0.4,0.05,0.79,0.1,1.18,0.15
					c0.33,0.04,0.65,0.09,0.98,0.13c0.39,0.05,0.77,0.11,1.15,0.16c0.31,0.04,0.61,0.09,0.92,0.13c0.39,0.05,0.77,0.11,1.15,0.16
					c0.29,0.04,0.58,0.08,0.86,0.13c0.38,0.06,0.76,0.11,1.14,0.17c0.28,0.04,0.55,0.08,0.82,0.12c0.37,0.06,0.74,0.11,1.1,0.17
					c0.27,0.04,0.55,0.09,0.81,0.13c0.35,0.06,0.7,0.11,1.04,0.17c0.26,0.04,0.52,0.09,0.78,0.13c0.34,0.06,0.68,0.11,1.01,0.17
					c0.26,0.04,0.52,0.09,0.77,0.13c0.33,0.06,0.65,0.11,0.97,0.17c0.24,0.04,0.49,0.09,0.73,0.13c0.32,0.06,0.64,0.11,0.95,0.17
					c0.24,0.04,0.47,0.09,0.71,0.13c0.3,0.06,0.61,0.11,0.9,0.17c0.23,0.04,0.46,0.09,0.69,0.13c0.3,0.06,0.59,0.12,0.88,0.17
					c0.22,0.04,0.44,0.09,0.65,0.13c0.29,0.06,0.58,0.12,0.86,0.18c0.21,0.04,0.41,0.08,0.62,0.13c0.28,0.06,0.55,0.12,0.83,0.18
					c0.2,0.04,0.4,0.09,0.6,0.13c0.26,0.06,0.51,0.11,0.77,0.17c0.2,0.05,0.41,0.09,0.61,0.14c0.25,0.06,0.49,0.11,0.74,0.17
					c0.19,0.04,0.38,0.09,0.57,0.13c0.25,0.06,0.49,0.12,0.73,0.18c0.18,0.04,0.36,0.09,0.54,0.13c0.23,0.06,0.45,0.11,0.67,0.17
					c0.18,0.05,0.37,0.09,0.55,0.14c0.21,0.05,0.4,0.1,0.6,0.16c0.19,0.05,0.38,0.1,0.57,0.15c0.21,0.05,0.4,0.11,0.61,0.16
					c0.17,0.05,0.34,0.09,0.51,0.14c0.19,0.05,0.38,0.11,0.56,0.16c0.43,0.12,0.85,0.24,1.25,0.36c0.09,0.03,0.18,0.05,0.27,0.08
					c0.21,0.06,0.41,0.12,0.61,0.18c0.13,0.04,0.26,0.08,0.38,0.12c0.18,0.05,0.35,0.11,0.52,0.16c0.14,0.04,0.29,0.09,0.43,0.13
					c0.17,0.05,0.34,0.11,0.5,0.16c0.13,0.04,0.27,0.09,0.4,0.13c0.17,0.06,0.33,0.11,0.5,0.17c0.13,0.04,0.25,0.08,0.37,0.13
					c0.16,0.05,0.31,0.11,0.47,0.16c0.09,0.03,0.19,0.07,0.29,0.1c0,0,0,0,0,0c6.45,2.28,9.51,4.33,11.97,5.71
					c6.78,4.69,9.76,10.38,9.32,16.1c-0.28,3.59-5.23,9.69-9.17,13.76c4.03,12.71,11.06,42.8,11.06,42.8
					c2.52-2.42,19.36-19.21,25.64-25.67C309.19,117.76,280.73,85.24,244.03,75.42z"/>
				
					<linearGradient id="SVGID_00000068642388210153404880000015616835383490812856_" gradientUnits="userSpaceOnUse" x1="79.4042" y1="169.8467" x2="173.3692" y2="24.6972">
					<stop  offset="0" style="stop-color:#2C88D6"/>
					<stop  offset="0.1446" style="stop-color:#2F89DC"/>
					<stop  offset="0.3425" style="stop-color:#378DEE"/>
					<stop  offset="0.4788" style="stop-color:#3E90FE"/>
					<stop  offset="0.6362" style="stop-color:#3B8FF8"/>
					<stop  offset="0.8516" style="stop-color:#338BE6"/>
					<stop  offset="1" style="stop-color:#2C88D6"/>
				</linearGradient>
				<path style="fill:url(#SVGID_00000068642388210153404880000015616835383490812856_);" d="M75.32,94.66
					C75.32,94.66,75.32,94.66,75.32,94.66c-10.63,26.67-15.82,47.12-17.38,53.19c7.54,7.78,16.2,15.82,24.92,23.47
					c4.35-21.75,12.97-52.63,23.21-78.39c-0.01,0-0.02,0-0.03,0c4.21-10.57,7.65-17.6,9.72-21.64c4.3-8.59,9.75-20.29,22.03-20.97
					c10.17-0.57,14.97,3.15,21.41,16.21c7.6,0.08,15.53,0.3,23.54,0.71c0.01,0,0.03,0,0.04,0c3.99,0.21,8,0.46,11.99,0.77
					c0.02,0,0.03,0,0.05,0c4.01,0.31,8,0.67,11.94,1.1c-4.36-9.62-9.47-19.93-16.71-33c-18.74-33.85-59.81-44.44-86.12-0.01
					c-6.59,11.13-12.34,22.14-17.35,32.69c0,0,0,0,0,0C82.28,77.85,78.55,86.54,75.32,94.66z"/>
				
					<linearGradient id="SVGID_00000008140056803393066920000005741502380535253634_" gradientUnits="userSpaceOnUse" x1="214.8385" y1="121.8101" x2="208.7269" y2="279.1827">
					<stop  offset="0" style="stop-color:#2C88D6"/>
					<stop  offset="0.1446" style="stop-color:#2F89DC"/>
					<stop  offset="0.3425" style="stop-color:#378DEE"/>
					<stop  offset="0.4788" style="stop-color:#3E90FE"/>
					<stop  offset="0.6362" style="stop-color:#3B8FF8"/>
					<stop  offset="0.8516" style="stop-color:#338BE6"/>
					<stop  offset="1" style="stop-color:#2C88D6"/>
				</linearGradient>
				<path style="fill:url(#SVGID_00000008140056803393066920000005741502380535253634_);" d="M225.12,113.87
					c-15.79-2.54-34.76-0.91-46.45,0.6c-0.01-0.03-0.03-0.07-0.04-0.1c12.48,33.31,23.92,67.37,30.69,89.78
					c0.71,2.32,1.37,4.55,1.98,6.64c0,0,0,0-0.01,0c2.02,6.97,3.42,12.35,4.03,15.57c2.97,15.67-5.12,27.34-20.82,21.06
					c-0.19-0.08-0.57-0.27-1.08-0.54c0.02,0.01,0.05,0.03,0.08,0.04c-6.21,6.88-13.54,15.43-19.4,21.55c-1.5-0.73-3-1.47-4.5-2.22
					c3.55,1.77,7.1,3.5,10.68,5.18c35.08,16.41,73.63-3.58,69.76-50.62c-1.04-12.61-2.77-25.18-5.11-37.7c0,0-7.03-30.08-11.06-42.8
					C231.03,130.92,228.06,122.07,225.12,113.87z"/>
				<path class="st6" d="M193.5,246.93c-0.02-0.01-0.05-0.03-0.08-0.04c-0.2-0.11-0.43-0.23-0.67-0.36
					c-0.03-0.02-0.07-0.04-0.1-0.05c-3.76-2.04-11.82-6.73-15.38-8.93c-0.05-0.03-0.09-0.06-0.14-0.09
					c-0.22-0.13-0.41-0.26-0.59-0.37c-0.06-0.04-0.11-0.07-0.16-0.1c-0.16-0.1-0.31-0.2-0.42-0.28c-0.01-0.01-0.35-0.26-0.36-0.27
					c0,0-0.18,0.13-0.18,0.12c-1.58,0.98-2.96,2.04-4.38,2.92c-0.01,0.01-0.02,0.01-0.02,0.02c-0.81,0.5-1.72,1.06-2.67,1.65
					c-0.01,0-0.01,0.01-0.02,0.01c-0.25,0.15-0.5,0.31-0.75,0.47c-2.28,1.41-4.33,2.67-6.17,3.8c-0.17,0.1-0.34,0.21-0.51,0.31
					c-0.16,0.1-0.32,0.19-0.47,0.29c-4.36,2.68-8.71,5.34-11.67,7.12c-1.15,0.69-1.55,0.92-1.88,1.12c0,0,0,0,0.01,0.01
					c0.76,0.43,3.61,1.97,4.21,2.34l0.04,0c2.11,1.16,4.23,2.3,6.36,3.43c1.02,0.54,2.05,1.08,3.07,1.61
					c1.03,0.54,2.06,1.08,3.1,1.61c1.31,0.67,2.63,1.34,3.94,2.01c0.66,0.33,1.33,0.66,1.99,0.99c1.5,0.75,3,1.49,4.5,2.22
					C179.96,262.36,187.28,253.81,193.5,246.93z"/>
				<path class="st7" d="M194.05,173.5c-0.87,0.68-1.74,1.34-2.61,2c-0.51,0.39-1.03,0.79-1.54,1.18c-1.1,0.83-2.18,1.64-3.27,2.45
					c-0.27,0.2-0.53,0.4-0.8,0.59c-1.11,0.82-2.22,1.63-3.32,2.43c-0.15,0.11-0.3,0.22-0.45,0.33c2.15,14.73,4.9,34.4,5.93,45.4
					c3.48-2.46,6.77-4.83,9.84-7.07c0.06-0.05,0.13-0.09,0.19-0.14c2.02-1.47,3.94-2.89,5.74-4.24c0.06-0.04,0.11-0.08,0.17-0.12
					c0.78-0.58,1.54-1.15,2.28-1.7c0.22-0.17,0.44-0.33,0.66-0.49c0.58-0.44,1.15-0.86,1.71-1.28c0.22-0.16,0.44-0.33,0.65-0.49
					c0.71-0.53,1.41-1.06,2.06-1.56c-0.6-2.08-1.27-4.29-1.98-6.64c-1.28-4.22-2.7-8.79-4.23-13.6c-0.83-2.6-1.69-5.27-2.57-7.98
					c-0.67-2.07-1.36-4.16-2.06-6.28c-0.58-1.77-1.18-3.54-1.77-5.33c-0.1-0.29-0.19-0.57-0.29-0.86
					C196.95,171.25,195.49,172.38,194.05,173.5z"/>
				<path class="st8" d="M175.05,104.9c0.01,0.02,0.02,0.04,0.02,0.06c1.19,3.12,2.38,6.26,3.56,9.41c0.01,0.03,0.03,0.07,0.04,0.1
					c11.69-1.51,30.66-3.14,46.45-0.6c-0.01-0.02-0.01-0.03-0.02-0.05c-0.55-1.54-1.11-3.06-1.66-4.56c0-0.01-0.01-0.02-0.01-0.02
					c-0.56-1.52-1.12-3.01-1.67-4.47c-0.09-0.03-0.19-0.07-0.29-0.1c-0.16-0.05-0.31-0.11-0.47-0.16c-0.12-0.04-0.25-0.08-0.37-0.13
					c-0.16-0.06-0.33-0.11-0.5-0.17c-0.13-0.04-0.27-0.09-0.4-0.13c-0.17-0.05-0.33-0.11-0.5-0.16c-0.14-0.04-0.29-0.09-0.43-0.13
					c-0.17-0.05-0.35-0.11-0.52-0.16c-0.12-0.04-0.25-0.08-0.38-0.12c-0.2-0.06-0.4-0.12-0.61-0.18c-0.09-0.03-0.18-0.05-0.27-0.08
					c-0.41-0.12-0.83-0.24-1.25-0.36c-0.19-0.05-0.37-0.11-0.56-0.16c-0.17-0.05-0.34-0.09-0.51-0.14c-0.2-0.05-0.4-0.11-0.61-0.16
					c-0.19-0.05-0.38-0.1-0.57-0.15c-0.2-0.05-0.4-0.1-0.6-0.16c-0.18-0.05-0.36-0.09-0.55-0.14c-0.22-0.06-0.45-0.11-0.67-0.17
					c-0.18-0.04-0.36-0.09-0.54-0.13c-0.24-0.06-0.48-0.12-0.73-0.18c-0.19-0.04-0.38-0.09-0.57-0.13
					c-0.24-0.06-0.49-0.11-0.74-0.17c-0.2-0.05-0.41-0.09-0.61-0.14c-0.25-0.06-0.51-0.11-0.77-0.17c-0.2-0.04-0.4-0.09-0.6-0.13
					c-0.27-0.06-0.55-0.12-0.83-0.18c-0.2-0.04-0.41-0.08-0.62-0.13c-0.29-0.06-0.57-0.12-0.86-0.18c-0.21-0.04-0.43-0.09-0.65-0.13
					c-0.29-0.06-0.58-0.12-0.88-0.17c-0.23-0.04-0.46-0.09-0.69-0.13c-0.3-0.06-0.6-0.11-0.9-0.17c-0.23-0.04-0.47-0.09-0.71-0.13
					c-0.31-0.06-0.63-0.11-0.95-0.17c-0.24-0.04-0.49-0.09-0.73-0.13c-0.32-0.06-0.64-0.11-0.97-0.17
					c-0.25-0.04-0.51-0.09-0.77-0.13c-0.33-0.06-0.67-0.11-1.01-0.17c-0.26-0.04-0.52-0.09-0.78-0.13
					c-0.34-0.06-0.69-0.11-1.04-0.17c-0.27-0.04-0.54-0.09-0.81-0.13c-0.36-0.06-0.73-0.11-1.1-0.17c-0.27-0.04-0.54-0.08-0.82-0.12
					c-0.37-0.06-0.75-0.11-1.14-0.17c-0.29-0.04-0.57-0.08-0.86-0.13c-0.38-0.05-0.76-0.11-1.15-0.16c-0.3-0.04-0.61-0.09-0.92-0.13
					c-0.38-0.05-0.77-0.11-1.15-0.16c-0.32-0.04-0.65-0.09-0.98-0.13c-0.39-0.05-0.78-0.1-1.18-0.15c-0.34-0.04-0.67-0.09-1.01-0.13
					c-0.39-0.05-0.8-0.1-1.2-0.15c-0.36-0.04-0.72-0.09-1.08-0.13c-0.39-0.05-0.78-0.09-1.17-0.14c-0.39-0.05-0.78-0.09-1.17-0.14
					c-0.37-0.04-0.75-0.09-1.13-0.13c-0.43-0.05-0.86-0.1-1.3-0.15c-0.35-0.04-0.7-0.08-1.05-0.12c-0.48-0.05-0.95-0.1-1.43-0.16
					c-0.32-0.03-0.64-0.07-0.96-0.1c-0.53-0.06-1.06-0.11-1.61-0.17c-0.03,0-0.05-0.01-0.08-0.01
					C172.63,98.61,173.84,101.75,175.05,104.9z"/>
				<path class="st9" d="M78.4,221.62c-0.85-3.55-0.73-7.99,0.08-12.96c-9.57-7.71-20.03-16.81-29.36-25.38
					c-0.12,0.61-0.24,1.19-0.36,1.75c-0.04,0.2-0.08,0.39-0.12,0.58c-0.06,0.29-0.12,0.57-0.17,0.84c-1.25,6.06-1.93,9.3-2.53,13.74
					c0,0,0,0,0,0c-0.13,0.94-0.25,1.94-0.37,3.03c0,0.01,0,0.01,0,0.02c-0.12,1.08-0.25,2.26-0.38,3.57c0,0.02,0,0.03,0,0.05
					c-0.07,0.66-0.13,1.34-0.2,2.07C54.21,213.18,67.28,218.71,78.4,221.62z"/>
				
					<linearGradient id="SVGID_00000118376065663319296190000009156557344986560397_" gradientUnits="userSpaceOnUse" x1="36.0318" y1="92.1417" x2="117.7739" y2="183.0511">
					<stop  offset="0" style="stop-color:#2C88D6"/>
					<stop  offset="0.1446" style="stop-color:#2F89DC"/>
					<stop  offset="0.3425" style="stop-color:#378DEE"/>
					<stop  offset="0.4788" style="stop-color:#3E90FE"/>
					<stop  offset="0.6362" style="stop-color:#3B8FF8"/>
					<stop  offset="0.8516" style="stop-color:#338BE6"/>
					<stop  offset="1" style="stop-color:#2C88D6"/>
				</linearGradient>
				<path style="fill:url(#SVGID_00000118376065663319296190000009156557344986560397_);" d="M134.47,212.53
					c-0.01-0.01-0.02-0.01-0.03-0.02c-3.34-2.19-27.71-20.25-51.58-41.19c-8.72-7.65-17.38-15.69-24.92-23.47
					C52.14,141.87,47,136.03,43,130.63c-8.34-11.56-6.06-20.66,2.49-26.87c6.71-4.84,17.22-7.94,29.41-9.06c0,0,0.14-0.01,0.41-0.04
					c0,0,0,0,0,0c3.24-8.12,6.97-16.81,11.26-25.86c0,0,0,0,0,0c-0.15,0.01-0.31,0.02-0.46,0.03c-32.65,1.8-44.76,7.39-48.69,8.86
					C7.16,89.04-9.07,116.35,23.3,157.35c4.19,5.31,14.12,15.21,25.81,25.94c-0.12,0.61-0.24,1.19-0.36,1.75
					c0.12-0.56,0.23-1.14,0.36-1.75c9.34,8.57,19.79,17.66,29.36,25.38c0.04,0.03,0.08,0.07,0.12,0.1
					c10.97,8.84,20.75,15.84,26.29,18.1c0.01,0,0.02,0.01,0.02,0.01c0,0,0,0,0,0S128.83,216.74,134.47,212.53z"/>
				<path class="st8" d="M122.16,67.18c-0.35,0.02-0.69,0.03-1.03,0.05c-0.39,0.02-0.78,0.04-1.16,0.06
					c-0.74,0.04-1.53,0.07-2.24,0.1c-0.22,0.46-0.7,1.37-1.4,2.75c-0.18,0.35-0.35,0.75-0.57,1.16c-0.16,0.33-0.32,0.65-0.48,0.96
					c-2.04,4.03-4.08,8.37-6.04,12.95c-1.08,2.51-2.12,5.1-3.16,7.73c0.93-0.03,1.88-0.06,2.84-0.08c0.85-0.02,1.72-0.05,2.59-0.07
					c0.06,0,0.13,0,0.19,0c5.66-0.15,11.69-0.24,17.86-0.15c2-12.84,4.32-20.95,6.19-25.93c-4.07,0.1-7.91,0.23-11.45,0.38
					c-0.18,0.01-0.37,0.02-0.55,0.02C123.2,67.13,122.68,67.15,122.16,67.18z"/>
			</g>
		</g>
		<g>
			<g>
				<path class="st17" d="M491.62,203.09c0,36.78-26.43,55.17-79.3,55.17c-17.97,0-34.66-2.16-50.09-6.49l6.91-31.46
					c15.24,5.27,29.63,7.9,43.18,7.9c15.05,0,25.87-1.46,32.45-4.37c6.58-2.92,9.88-7.81,9.88-14.67c0-7.15-3.1-13.17-9.31-18.06
					c-5.36-4.33-16.23-9.97-32.59-16.93c-14.86-6.4-25.92-13.36-33.16-20.88c-9.12-9.5-13.69-21.21-13.69-35.13
					c0-16.18,6-28.83,17.99-37.96c11.99-9.12,29.23-13.69,51.71-13.69c18.43,0,33.91,1.55,46.42,4.66l-5.22,31.32
					c-12.7-4.61-26.43-6.91-41.2-6.91c-22.2,0-33.3,5.93-33.3,17.78c0,6.3,2.59,11.43,7.76,15.38c4.51,3.39,14.34,8.14,29.49,14.25
					c16.08,6.49,28.12,13.64,36.12,21.45C486.3,174.87,491.62,187.76,491.62,203.09z"/>
				<path class="st17" d="M645.56,69.47l-0.99,30.34c-18.81-1.41-36.54-2.12-53.19-2.12c-0.19,17.78-0.28,37.58-0.28,59.4
					c0,33.86,0.52,65.89,1.55,96.09h-39.51c1.22-29.91,1.83-61.94,1.83-96.09c0-21.45-0.19-41.25-0.56-59.4
					c-13.26,0-31.46,0.75-54.6,2.26l1.13-30.48H645.56z"/>
				<path class="st17" d="M817.56,253.18h-45.15c0-6.21-4.28-23.8-12.84-52.77h-65.19c-8.84,28.5-13.26,46.09-13.26,52.77h-42.47
					c0-3.67,10.98-33.77,32.95-90.3c21.96-56.53,32.95-87.67,32.95-93.41h53.33c0,5.36,9.95,36.05,29.84,92.07
					C807.61,217.55,817.56,248.1,817.56,253.18z M752.37,173.46c-16.09-48.54-24.13-74.78-24.13-78.73h-2.26
					c0,3.67-8.32,29.91-24.97,78.73H752.37z"/>
				<path class="st17" d="M982.37,253.18H940.6c-10.91-33.3-19.28-53.85-25.12-61.66c-5.83-7.81-15.24-11.71-28.22-11.71
					c-5.46,0-10.68,0.05-15.66,0.14c0,24.18,0.42,48.59,1.27,73.23h-39.22c1.22-28.41,1.83-60.44,1.83-96.09
					c0-34.24-0.61-63.44-1.83-87.62h24.41c2.82,0,8.72-0.14,17.71-0.42c8.98-0.28,17.28-0.42,24.9-0.42
					c43.18,0,64.76,14.77,64.76,44.31c0,23.42-12.32,39.74-36.97,48.96V164c9.5,2.63,17.82,10.04,24.97,22.22
					C960.59,198.41,970.23,220.72,982.37,253.18z M929.46,123.37c0-18.72-12.04-28.08-36.12-28.08c-8.84,0-16.65,0.66-23.42,1.98
					c1.03,14.58,1.55,33.58,1.55,57c5.17,0.19,9.55,0.28,13.12,0.28C914.5,154.55,929.46,144.16,929.46,123.37z"/>
				<path class="st17" d="M1151.41,253.18h-34.85c0-3.86-12.94-24.22-38.8-61.09c-27.09-38.85-42.52-65.42-46.28-79.72h-2.26
					c2.35,20.6,3.53,39.22,3.53,55.87c0,23.24,0.66,51.55,1.98,84.94h-34.71c1.41-29.16,2.12-61.19,2.12-96.09
					c0-34.33-0.71-63.54-2.12-87.62h41.91c0,4.99,11.62,24.88,34.85,59.68c24.74,36.97,38.94,62.04,42.61,75.2h2.12
					c-2.26-20.98-3.39-39.79-3.39-56.44c0-25.49-0.66-51.64-1.98-78.45h35.27c-1.32,23.33-1.98,52.54-1.98,87.62
					C1149.43,192.46,1150.09,224.49,1151.41,253.18z"/>
				<path class="st17" d="M1307.47,222.14l-1.13,31.04h-120.07c1.22-28.41,1.83-60.44,1.83-96.09c0-34.24-0.61-63.44-1.83-87.62
					h114.57l-1.55,30.9c-28.22-1.5-53.81-2.26-76.76-2.26c0.94,13.08,1.41,28.5,1.41,46.28c19.66,0,40.68-0.52,63.07-1.55v29.49
					c-22.01-0.94-43.03-1.41-63.07-1.41c0,19.1,0.37,36.97,1.13,53.62C1250.84,224.53,1278.3,223.73,1307.47,222.14z"/>
				<path class="st17" d="M1461.41,69.47l-0.99,30.34c-18.82-1.41-36.54-2.12-53.19-2.12c-0.19,17.78-0.28,37.58-0.28,59.4
					c0,33.86,0.52,65.89,1.55,96.09h-39.51c1.22-29.91,1.83-61.94,1.83-96.09c0-21.45-0.19-41.25-0.56-59.4
					c-13.26,0-31.47,0.75-54.6,2.26l1.13-30.48H1461.41z"/>
			</g>
		</g>
		<g class="st18">
			<g>
				<path d="M182.05,182.49c-17.77,12.86-34.27,22.78-47.61,30.02c0.01,0.01,0.02,0.01,0.03,0.02
					c-5.63,4.21-29.56,14.35-29.56,14.35s0,0,0,0c-0.01,0-0.02-0.01-0.02-0.01c-1.67,0.69-2.64,1.07-2.77,1.11
					c-14.94,5.16-21.8,1.67-23.72-6.35c-11.12-2.91-24.19-8.44-33.43-12.69c-0.3,3.14-0.63,6.97-1.05,11.9
					c-4.67,55.07,34.54,67.07,69.59,50.7c11.24-4.82,22.62-10.77,33.57-17.14c-0.06-0.04-0.16-0.09-0.21-0.12
					c-0.53,0.3-0.72,0.44-0.27,0.17c-0.09,0.05,0.36-0.22,0.27-0.17c0.61-0.36,0.92-0.54,1.88-1.12c2.08-1.25,5.72-3.46,11.67-7.12
					c0.16-0.1,0.32-0.19,0.47-0.29c0.17-0.1,0.34-0.21,0.51-0.31c2.14-1.32,4.25-2.62,6.17-3.8c0.25-0.16,0.49-0.31,0.75-0.47
					c0.01,0,0.01-0.01,0.02-0.01c0.86-0.53,1.76-1.09,2.69-1.66c6.02-3.97,11.71-7.89,16.97-11.61c-1.03-10.97-3.77-30.58-5.92-45.3
					C182.07,182.55,182.06,182.53,182.05,182.49z"/>
				<path d="M244.03,75.42c-4.61-1.23-9.29-2.14-14-2.88c0,0,0,0,0,0c-7.39-1.43-15.24-2.54-23.27-3.41c0,0,0,0,0,0
					c-3.95-0.43-7.94-0.79-11.94-1.1c-0.02,0-0.03,0-0.05,0c-4-0.31-8-0.56-11.99-0.77c-0.01,0-0.03,0-0.04,0
					c-8.01-0.41-15.94-0.63-23.53-0.71c0,0,0,0,0,0c-8.35-0.09-16.3-0.01-23.5,0.17c0,0,0,0,0,0c0.02,0,0.03,0,0.05,0
					c-1.87,4.97-4.19,13.09-6.19,25.93c3.86,0.06,7.77,0.18,11.69,0.43c11.49,0.72,21.48,1.55,30.17,2.44c0,0,0,0,0,0
					c0.03,0,0.05,0.01,0.08,0.01c0.54,0.06,1.07,0.11,1.61,0.17c0.32,0.03,0.64,0.07,0.96,0.1c0.48,0.05,0.96,0.1,1.43,0.16
					c0.35,0.04,0.71,0.08,1.05,0.12c0.44,0.05,0.87,0.1,1.3,0.15c0.38,0.04,0.76,0.09,1.13,0.13c0.4,0.05,0.78,0.09,1.17,0.14
					c0.39,0.05,0.79,0.09,1.17,0.14c0.36,0.04,0.72,0.09,1.08,0.13c0.4,0.05,0.8,0.1,1.2,0.15c0.34,0.04,0.68,0.09,1.01,0.13
					c0.4,0.05,0.79,0.1,1.18,0.15c0.33,0.04,0.65,0.09,0.98,0.13c0.39,0.05,0.77,0.11,1.15,0.16c0.31,0.04,0.61,0.09,0.92,0.13
					c0.39,0.05,0.77,0.11,1.15,0.16c0.29,0.04,0.58,0.08,0.86,0.13c0.38,0.06,0.76,0.11,1.14,0.17c0.28,0.04,0.55,0.08,0.82,0.12
					c0.37,0.06,0.74,0.11,1.1,0.17c0.27,0.04,0.55,0.09,0.81,0.13c0.35,0.06,0.7,0.11,1.04,0.17c0.26,0.04,0.52,0.09,0.78,0.13
					c0.34,0.06,0.68,0.11,1.01,0.17c0.26,0.04,0.52,0.09,0.77,0.13c0.33,0.06,0.65,0.11,0.97,0.17c0.24,0.04,0.49,0.09,0.73,0.13
					c0.32,0.06,0.64,0.11,0.95,0.17c0.24,0.04,0.47,0.09,0.71,0.13c0.3,0.06,0.61,0.11,0.9,0.17c0.23,0.04,0.46,0.09,0.69,0.13
					c0.3,0.06,0.59,0.12,0.88,0.17c0.22,0.04,0.44,0.09,0.65,0.13c0.29,0.06,0.58,0.12,0.86,0.18c0.21,0.04,0.41,0.08,0.62,0.13
					c0.28,0.06,0.55,0.12,0.83,0.18c0.2,0.04,0.4,0.09,0.6,0.13c0.26,0.06,0.51,0.11,0.77,0.17c0.2,0.05,0.41,0.09,0.61,0.14
					c0.25,0.06,0.49,0.11,0.74,0.17c0.19,0.04,0.38,0.09,0.57,0.13c0.25,0.06,0.49,0.12,0.73,0.18c0.18,0.04,0.36,0.09,0.54,0.13
					c0.23,0.06,0.45,0.11,0.67,0.17c0.18,0.05,0.37,0.09,0.55,0.14c0.21,0.05,0.4,0.1,0.6,0.16c0.19,0.05,0.38,0.1,0.57,0.15
					c0.21,0.05,0.4,0.11,0.61,0.16c0.17,0.05,0.34,0.09,0.51,0.14c0.19,0.05,0.38,0.11,0.56,0.16c0.43,0.12,0.85,0.24,1.25,0.36
					c0.09,0.03,0.18,0.05,0.27,0.08c0.21,0.06,0.41,0.12,0.61,0.18c0.13,0.04,0.26,0.08,0.38,0.12c0.18,0.05,0.35,0.11,0.52,0.16
					c0.14,0.04,0.29,0.09,0.43,0.13c0.17,0.05,0.34,0.11,0.5,0.16c0.13,0.04,0.27,0.09,0.4,0.13c0.17,0.06,0.33,0.11,0.5,0.17
					c0.13,0.04,0.25,0.08,0.37,0.13c0.16,0.05,0.31,0.11,0.47,0.16c0.09,0.03,0.19,0.07,0.29,0.1c0,0,0,0,0,0
					c6.45,2.28,9.51,4.33,11.97,5.71c6.78,4.69,9.76,10.38,9.32,16.1c-0.28,3.59-5.23,9.69-9.17,13.76
					c4.03,12.71,11.06,42.8,11.06,42.8c2.52-2.42,19.36-19.21,25.64-25.67C309.19,117.76,280.73,85.24,244.03,75.42z"/>
				<path d="M75.32,94.66C75.32,94.66,75.32,94.66,75.32,94.66c-10.63,26.67-15.82,47.12-17.38,53.19
					c7.54,7.78,16.2,15.82,24.92,23.47c4.35-21.75,12.97-52.63,23.21-78.39c-0.01,0-0.02,0-0.03,0c4.21-10.57,7.65-17.6,9.72-21.64
					c4.3-8.59,9.75-20.29,22.03-20.97c10.17-0.57,14.97,3.15,21.41,16.21c7.6,0.08,15.53,0.3,23.54,0.71c0.01,0,0.03,0,0.04,0
					c3.99,0.21,8,0.46,11.99,0.77c0.02,0,0.03,0,0.05,0c4.01,0.31,8,0.67,11.94,1.1c-4.36-9.62-9.47-19.93-16.71-33
					c-18.74-33.85-59.81-44.44-86.12-0.01c-6.59,11.13-12.34,22.14-17.35,32.69c0,0,0,0,0,0C82.28,77.85,78.55,86.54,75.32,94.66z"
					/>
				<path d="M225.12,113.87c-15.79-2.54-34.76-0.91-46.45,0.6c-0.01-0.03-0.03-0.07-0.04-0.1c12.48,33.31,23.92,67.37,30.69,89.78
					c0.71,2.32,1.37,4.55,1.98,6.64c0,0,0,0-0.01,0c2.02,6.97,3.42,12.35,4.03,15.57c2.97,15.67-5.12,27.34-20.82,21.06
					c-0.19-0.08-0.57-0.27-1.08-0.54c0.02,0.01,0.05,0.03,0.08,0.04c-6.21,6.88-13.54,15.43-19.4,21.55c-1.5-0.73-3-1.47-4.5-2.22
					c3.55,1.77,7.1,3.5,10.68,5.18c35.08,16.41,73.63-3.58,69.76-50.62c-1.04-12.61-2.77-25.18-5.11-37.7c0,0-7.03-30.08-11.06-42.8
					C231.03,130.92,228.06,122.07,225.12,113.87z"/>
				<path d="M193.5,246.93c-0.02-0.01-0.05-0.03-0.08-0.04c-0.2-0.11-0.43-0.23-0.67-0.36c-0.03-0.02-0.07-0.04-0.1-0.05
					c-3.76-2.04-11.82-6.73-15.38-8.93c-0.05-0.03-0.09-0.06-0.14-0.09c-0.22-0.13-0.41-0.26-0.59-0.37
					c-0.06-0.04-0.11-0.07-0.16-0.1c-0.16-0.1-0.31-0.2-0.42-0.28c-0.01-0.01-0.35-0.26-0.36-0.27c0,0-0.18,0.13-0.18,0.12
					c-1.58,0.98-2.96,2.04-4.38,2.92c-0.01,0.01-0.02,0.01-0.02,0.02c-0.81,0.5-1.72,1.06-2.67,1.65c-0.01,0-0.01,0.01-0.02,0.01
					c-0.25,0.15-0.5,0.31-0.75,0.47c-2.28,1.41-4.33,2.67-6.17,3.8c-0.17,0.1-0.34,0.21-0.51,0.31c-0.16,0.1-0.32,0.19-0.47,0.29
					c-4.36,2.68-8.71,5.34-11.67,7.12c-1.15,0.69-1.55,0.92-1.88,1.12c0,0,0,0,0.01,0.01c0.76,0.43,3.61,1.97,4.21,2.34l0.04,0
					c2.11,1.16,4.23,2.3,6.36,3.43c1.02,0.54,2.05,1.08,3.07,1.61c1.03,0.54,2.06,1.08,3.1,1.61c1.31,0.67,2.63,1.34,3.94,2.01
					c0.66,0.33,1.33,0.66,1.99,0.99c1.5,0.75,3,1.49,4.5,2.22C179.96,262.36,187.28,253.81,193.5,246.93z"/>
				<path d="M194.05,173.5c-0.87,0.68-1.74,1.34-2.61,2c-0.51,0.39-1.03,0.79-1.54,1.18c-1.1,0.83-2.18,1.64-3.27,2.45
					c-0.27,0.2-0.53,0.4-0.8,0.59c-1.11,0.82-2.22,1.63-3.32,2.43c-0.15,0.11-0.3,0.22-0.45,0.33c2.15,14.73,4.9,34.4,5.93,45.4
					c3.48-2.46,6.77-4.83,9.84-7.07c0.06-0.05,0.13-0.09,0.19-0.14c2.02-1.47,3.94-2.89,5.74-4.24c0.06-0.04,0.11-0.08,0.17-0.12
					c0.78-0.58,1.54-1.15,2.28-1.7c0.22-0.17,0.44-0.33,0.66-0.49c0.58-0.44,1.15-0.86,1.71-1.28c0.22-0.16,0.44-0.33,0.65-0.49
					c0.71-0.53,1.41-1.06,2.06-1.56c-0.6-2.08-1.27-4.29-1.98-6.64c-1.28-4.22-2.7-8.79-4.23-13.6c-0.83-2.6-1.69-5.27-2.57-7.98
					c-0.67-2.07-1.36-4.16-2.06-6.28c-0.58-1.77-1.18-3.54-1.77-5.33c-0.1-0.29-0.19-0.57-0.29-0.86
					C196.95,171.25,195.49,172.38,194.05,173.5z"/>
				<path d="M175.05,104.9c0.01,0.02,0.02,0.04,0.02,0.06c1.19,3.12,2.38,6.26,3.56,9.41c0.01,0.03,0.03,0.07,0.04,0.1
					c11.69-1.51,30.66-3.14,46.45-0.6c-0.01-0.02-0.01-0.03-0.02-0.05c-0.55-1.54-1.11-3.06-1.66-4.56c0-0.01-0.01-0.02-0.01-0.02
					c-0.56-1.52-1.12-3.01-1.67-4.47c-0.09-0.03-0.19-0.07-0.29-0.1c-0.16-0.05-0.31-0.11-0.47-0.16c-0.12-0.04-0.25-0.08-0.37-0.13
					c-0.16-0.06-0.33-0.11-0.5-0.17c-0.13-0.04-0.27-0.09-0.4-0.13c-0.17-0.05-0.33-0.11-0.5-0.16c-0.14-0.04-0.29-0.09-0.43-0.13
					c-0.17-0.05-0.35-0.11-0.52-0.16c-0.12-0.04-0.25-0.08-0.38-0.12c-0.2-0.06-0.4-0.12-0.61-0.18c-0.09-0.03-0.18-0.05-0.27-0.08
					c-0.41-0.12-0.83-0.24-1.25-0.36c-0.19-0.05-0.37-0.11-0.56-0.16c-0.17-0.05-0.34-0.09-0.51-0.14c-0.2-0.05-0.4-0.11-0.61-0.16
					c-0.19-0.05-0.38-0.1-0.57-0.15c-0.2-0.05-0.4-0.1-0.6-0.16c-0.18-0.05-0.36-0.09-0.55-0.14c-0.22-0.06-0.45-0.11-0.67-0.17
					c-0.18-0.04-0.36-0.09-0.54-0.13c-0.24-0.06-0.48-0.12-0.73-0.18c-0.19-0.04-0.38-0.09-0.57-0.13
					c-0.24-0.06-0.49-0.11-0.74-0.17c-0.2-0.05-0.41-0.09-0.61-0.14c-0.25-0.06-0.51-0.11-0.77-0.17c-0.2-0.04-0.4-0.09-0.6-0.13
					c-0.27-0.06-0.55-0.12-0.83-0.18c-0.2-0.04-0.41-0.08-0.62-0.13c-0.29-0.06-0.57-0.12-0.86-0.18c-0.21-0.04-0.43-0.09-0.65-0.13
					c-0.29-0.06-0.58-0.12-0.88-0.17c-0.23-0.04-0.46-0.09-0.69-0.13c-0.3-0.06-0.6-0.11-0.9-0.17c-0.23-0.04-0.47-0.09-0.71-0.13
					c-0.31-0.06-0.63-0.11-0.95-0.17c-0.24-0.04-0.49-0.09-0.73-0.13c-0.32-0.06-0.64-0.11-0.97-0.17
					c-0.25-0.04-0.51-0.09-0.77-0.13c-0.33-0.06-0.67-0.11-1.01-0.17c-0.26-0.04-0.52-0.09-0.78-0.13
					c-0.34-0.06-0.69-0.11-1.04-0.17c-0.27-0.04-0.54-0.09-0.81-0.13c-0.36-0.06-0.73-0.11-1.1-0.17c-0.27-0.04-0.54-0.08-0.82-0.12
					c-0.37-0.06-0.75-0.11-1.14-0.17c-0.29-0.04-0.57-0.08-0.86-0.13c-0.38-0.05-0.76-0.11-1.15-0.16c-0.3-0.04-0.61-0.09-0.92-0.13
					c-0.38-0.05-0.77-0.11-1.15-0.16c-0.32-0.04-0.65-0.09-0.98-0.13c-0.39-0.05-0.78-0.1-1.18-0.15c-0.34-0.04-0.67-0.09-1.01-0.13
					c-0.39-0.05-0.8-0.1-1.2-0.15c-0.36-0.04-0.72-0.09-1.08-0.13c-0.39-0.05-0.78-0.09-1.17-0.14c-0.39-0.05-0.78-0.09-1.17-0.14
					c-0.37-0.04-0.75-0.09-1.13-0.13c-0.43-0.05-0.86-0.1-1.3-0.15c-0.35-0.04-0.7-0.08-1.05-0.12c-0.48-0.05-0.95-0.1-1.43-0.16
					c-0.32-0.03-0.64-0.07-0.96-0.1c-0.53-0.06-1.06-0.11-1.61-0.17c-0.03,0-0.05-0.01-0.08-0.01
					C172.63,98.61,173.84,101.75,175.05,104.9z"/>
				<path d="M78.4,221.62c-0.85-3.55-0.73-7.99,0.08-12.96c-9.57-7.71-20.03-16.81-29.36-25.38c-0.12,0.61-0.24,1.19-0.36,1.75
					c-0.04,0.2-0.08,0.39-0.12,0.58c-0.06,0.29-0.12,0.57-0.17,0.84c-1.25,6.06-1.93,9.3-2.53,13.74c0,0,0,0,0,0
					c-0.13,0.94-0.25,1.94-0.37,3.03c0,0.01,0,0.01,0,0.02c-0.12,1.08-0.25,2.26-0.38,3.57c0,0.02,0,0.03,0,0.05
					c-0.07,0.66-0.13,1.34-0.2,2.07C54.21,213.18,67.28,218.71,78.4,221.62z"/>
				<path d="M134.47,212.53c-0.01-0.01-0.02-0.01-0.03-0.02c-3.34-2.19-27.71-20.25-51.58-41.19c-8.72-7.65-17.38-15.69-24.92-23.47
					C52.14,141.87,47,136.03,43,130.63c-8.34-11.56-6.06-20.66,2.49-26.87c6.71-4.84,17.22-7.94,29.41-9.06c0,0,0.14-0.01,0.41-0.04
					c0,0,0,0,0,0c3.24-8.12,6.97-16.81,11.26-25.86c0,0,0,0,0,0c-0.15,0.01-0.31,0.02-0.46,0.03c-32.65,1.8-44.76,7.39-48.69,8.86
					C7.16,89.04-9.07,116.35,23.3,157.35c4.19,5.31,14.12,15.21,25.81,25.94c-0.12,0.61-0.24,1.19-0.36,1.75
					c0.12-0.56,0.23-1.14,0.36-1.75c9.34,8.57,19.79,17.66,29.36,25.38c0.04,0.03,0.08,0.07,0.12,0.1
					c10.97,8.84,20.75,15.84,26.29,18.1c0.01,0,0.02,0.01,0.02,0.01c0,0,0,0,0,0S128.83,216.74,134.47,212.53z"/>
				<path d="M122.16,67.18c-0.35,0.02-0.69,0.03-1.03,0.05c-0.39,0.02-0.78,0.04-1.16,0.06c-0.74,0.04-1.53,0.07-2.24,0.1
					c-0.22,0.46-0.7,1.37-1.4,2.75c-0.18,0.35-0.35,0.75-0.57,1.16c-0.16,0.33-0.32,0.65-0.48,0.96c-2.04,4.03-4.08,8.37-6.04,12.95
					c-1.08,2.51-2.12,5.1-3.16,7.73c0.93-0.03,1.88-0.06,2.84-0.08c0.85-0.02,1.72-0.05,2.59-0.07c0.06,0,0.13,0,0.19,0
					c5.66-0.15,11.69-0.24,17.86-0.15c2-12.84,4.32-20.95,6.19-25.93c-4.07,0.1-7.91,0.23-11.45,0.38
					c-0.18,0.01-0.37,0.02-0.55,0.02C123.2,67.13,122.68,67.15,122.16,67.18z"/>
			</g>
		</g>
	</g>
</g>
</svg>
